<?xml version="1.0" encoding="utf-8" standalone="no"?>
<!DOCTYPE svg PUBLIC "-//W3C//DTD SVG 1.1//EN"
  "http://www.w3.org/Graphics/SVG/1.1/DTD/svg11.dtd">
<svg xmlns:xlink="http://www.w3.org/1999/xlink" width="518.4pt" height="396pt" viewBox="0 0 518.4 396" xmlns="http://www.w3.org/2000/svg" version="1.1">
 <metadata>
  <rdf:RDF xmlns:dc="http://purl.org/dc/elements/1.1/" xmlns:cc="http://creativecommons.org/ns#" xmlns:rdf="http://www.w3.org/1999/02/22-rdf-syntax-ns#">
   <cc:Work>
    <dc:type rdf:resource="http://purl.org/dc/dcmitype/StillImage"/>
    <dc:format>image/svg+xml</dc:format>
    <dc:creator>
     <cc:Agent>
      <dc:title>Matplotlib v3.10.8, https://matplotlib.org/</dc:title>
     </cc:Agent>
    </dc:creator>
   </cc:Work>
  </rdf:RDF>
 </metadata>
 <defs>
  <style type="text/css">*{stroke-linejoin: round; stroke-linecap: butt}</style>
 </defs>
 <g id="figure_1">
  <g id="patch_1">
   <path d="M 0 396
L 518.4 396
L 518.4 0
L 0 0
z
" style="fill: #ffffff"/>
  </g>
  <g id="axes_1">
   <g id="patch_2">
    <path d="M 24.3648 99
L 97.4592 99
Q 103.68 99 103.68 94.248
L 103.68 50.292
Q 103.68 45.54 97.4592 45.54
L 24.3648 45.54
Q 18.144 45.54 18.144 50.292
L 18.144 94.248
Q 18.144 99 24.3648 99
z
" clip-path="url(#p7a4573dd06)" style="fill: #eff7f8; stroke: #ccd7dc; stroke-width: 0.7; stroke-linejoin: miter"/>
   </g>
   <g id="patch_3">
    <path d="M 105.679055 73.656
Q 110.677627 73.656 114.558165 73.656
" clip-path="url(#p7a4573dd06)" style="fill: none; stroke: #516570; stroke-linecap: round"/>
    <path d="M 110.558165 71.656
L 114.558165 73.656
L 110.558165 75.656
z
" clip-path="url(#p7a4573dd06)" style="fill: #516570; stroke: #516570; stroke-linecap: round"/>
   </g>
   <g id="patch_4">
    <path d="M 123.8976 99
L 196.992 99
Q 203.2128 99 203.2128 94.248
L 203.2128 50.292
Q 203.2128 45.54 196.992 45.54
L 123.8976 45.54
Q 117.6768 45.54 117.6768 50.292
L 117.6768 94.248
Q 117.6768 99 123.8976 99
z
" clip-path="url(#p7a4573dd06)" style="fill: #eff7f8; stroke: #ccd7dc; stroke-width: 0.7; stroke-linejoin: miter"/>
   </g>
   <g id="patch_5">
    <path d="M 205.211855 73.656
Q 210.210427 73.656 214.090965 73.656
" clip-path="url(#p7a4573dd06)" style="fill: none; stroke: #516570; stroke-linecap: round"/>
    <path d="M 210.090965 71.656
L 214.090965 73.656
L 210.090965 75.656
z
" clip-path="url(#p7a4573dd06)" style="fill: #516570; stroke: #516570; stroke-linecap: round"/>
   </g>
   <g id="patch_6">
    <path d="M 223.4304 99
L 296.5248 99
Q 302.7456 99 302.7456 94.248
L 302.7456 50.292
Q 302.7456 45.54 296.5248 45.54
L 223.4304 45.54
Q 217.2096 45.54 217.2096 50.292
L 217.2096 94.248
Q 217.2096 99 223.4304 99
z
" clip-path="url(#p7a4573dd06)" style="fill: #eff7f8; stroke: #ccd7dc; stroke-width: 0.7; stroke-linejoin: miter"/>
   </g>
   <g id="patch_7">
    <path d="M 304.744655 73.656
Q 309.743227 73.656 313.623765 73.656
" clip-path="url(#p7a4573dd06)" style="fill: none; stroke: #516570; stroke-linecap: round"/>
    <path d="M 309.623765 71.656
L 313.623765 73.656
L 309.623765 75.656
z
" clip-path="url(#p7a4573dd06)" style="fill: #516570; stroke: #516570; stroke-linecap: round"/>
   </g>
   <g id="patch_8">
    <path d="M 322.9632 99
L 396.0576 99
Q 402.2784 99 402.2784 94.248
L 402.2784 50.292
Q 402.2784 45.54 396.0576 45.54
L 322.9632 45.54
Q 316.7424 45.54 316.7424 50.292
L 316.7424 94.248
Q 316.7424 99 322.9632 99
z
" clip-path="url(#p7a4573dd06)" style="fill: #eff7f8; stroke: #ccd7dc; stroke-width: 0.7; stroke-linejoin: miter"/>
   </g>
   <g id="patch_9">
    <path d="M 404.277455 73.656
Q 409.276027 73.656 413.156565 73.656
" clip-path="url(#p7a4573dd06)" style="fill: none; stroke: #516570; stroke-linecap: round"/>
    <path d="M 409.156565 71.656
L 413.156565 73.656
L 409.156565 75.656
z
" clip-path="url(#p7a4573dd06)" style="fill: #516570; stroke: #516570; stroke-linecap: round"/>
   </g>
   <g id="patch_10">
    <path d="M 422.496 99
L 495.5904 99
Q 501.8112 99 501.8112 94.248
L 501.8112 50.292
Q 501.8112 45.54 495.5904 45.54
L 422.496 45.54
Q 416.2752 45.54 416.2752 50.292
L 416.2752 94.248
Q 416.2752 99 422.496 99
z
" clip-path="url(#p7a4573dd06)" style="fill: #eff7f8; stroke: #ccd7dc; stroke-width: 0.7; stroke-linejoin: miter"/>
   </g>
   <g id="patch_11">
    <path d="M 24.3648 369.072
L 244.1664 369.072
Q 250.3872 369.072 250.3872 364.32
L 250.3872 303.732
Q 250.3872 298.98 244.1664 298.98
L 24.3648 298.98
Q 18.144 298.98 18.144 303.732
L 18.144 364.32
Q 18.144 369.072 24.3648 369.072
z
" clip-path="url(#p7a4573dd06)" style="fill: #fcf6ef; stroke: #ccd7dc; stroke-width: 0.7; stroke-linejoin: miter"/>
   </g>
   <g id="patch_12">
    <path d="M 273.1968 369.072
L 492.9984 369.072
Q 499.2192 369.072 499.2192 364.32
L 499.2192 303.732
Q 499.2192 298.98 492.9984 298.98
L 273.1968 298.98
Q 266.976 298.98 266.976 303.732
L 266.976 364.32
Q 266.976 369.072 273.1968 369.072
z
" clip-path="url(#p7a4573dd06)" style="fill: #eff7f8; stroke: #ccd7dc; stroke-width: 0.7; stroke-linejoin: miter"/>
   </g>
   <g id="line2d_1">
    <path d="M 25.92 91.08
L 25.92 53.46
" clip-path="url(#p7a4573dd06)" style="fill: none; stroke: #087f8c; stroke-width: 2.1; stroke-linecap: round"/>
   </g>
   <g id="line2d_2">
    <path d="M 125.4528 91.08
L 125.4528 53.46
" clip-path="url(#p7a4573dd06)" style="fill: none; stroke: #087f8c; stroke-width: 2.1; stroke-linecap: round"/>
   </g>
   <g id="line2d_3">
    <path d="M 224.9856 91.08
L 224.9856 53.46
" clip-path="url(#p7a4573dd06)" style="fill: none; stroke: #087f8c; stroke-width: 2.1; stroke-linecap: round"/>
   </g>
   <g id="line2d_4">
    <path d="M 324.5184 91.08
L 324.5184 53.46
" clip-path="url(#p7a4573dd06)" style="fill: none; stroke: #087f8c; stroke-width: 2.1; stroke-linecap: round"/>
   </g>
   <g id="line2d_5">
    <path d="M 424.0512 91.08
L 424.0512 53.46
" clip-path="url(#p7a4573dd06)" style="fill: none; stroke: #087f8c; stroke-width: 2.1; stroke-linecap: round"/>
   </g>
   <g id="line2d_6">
    <path d="M 25.92 361.152
L 25.92 306.9
" clip-path="url(#p7a4573dd06)" style="fill: none; stroke: #b86b20; stroke-width: 2.1; stroke-linecap: round"/>
   </g>
   <g id="line2d_7">
    <path d="M 274.752 361.152
L 274.752 306.9
" clip-path="url(#p7a4573dd06)" style="fill: none; stroke: #087f8c; stroke-width: 2.1; stroke-linecap: round"/>
   </g>
   <g id="text_1">
    <text style="font-weight: 700; font-size: 12px; font-family: 'Arial', 'DejaVu Sans', sans-serif; text-anchor: start; fill: #087f8c" x="18.144" y="22.910625" transform="rotate(-0 18.144 22.910625)">a</text>
   </g>
   <g id="text_2">
    <text style="font-weight: 700; font-size: 11px; font-family: 'Arial', 'DejaVu Sans', sans-serif; text-anchor: start; fill: #142c3d" x="37.8432" y="22.651406" transform="rotate(-0 37.8432 22.651406)">Batch workflow</text>
   </g>
   <g id="text_3">
    <text style="font-weight: 700; font-size: 10px; font-family: 'Arial', 'DejaVu Sans', sans-serif; text-anchor: start; fill: #087f8c" x="35.7696" y="67.471688" transform="rotate(-0 35.7696 67.471688)">01  Configure</text>
   </g>
   <g id="text_4">
    <text style="font-size: 8.8px; font-family: 'Arial', 'DejaVu Sans', sans-serif; text-anchor: start; fill: #142c3d" x="35.7696" y="91.150125" transform="rotate(-0 35.7696 91.150125)">GUI settings</text>
   </g>
   <g id="text_5">
    <text style="font-weight: 700; font-size: 10px; font-family: 'Arial', 'DejaVu Sans', sans-serif; text-anchor: start; fill: #087f8c" x="135.3024" y="67.349812" transform="rotate(-0 135.3024 67.349812)">02  Load</text>
   </g>
   <g id="text_6">
    <text style="font-size: 8.8px; font-family: 'Arial', 'DejaVu Sans', sans-serif; text-anchor: start; fill: #142c3d" x="135.3024" y="91.042875" transform="rotate(-0 135.3024 91.042875)">Detector arrays</text>
   </g>
   <g id="text_7">
    <text style="font-weight: 700; font-size: 10px; font-family: 'Arial', 'DejaVu Sans', sans-serif; text-anchor: start; fill: #087f8c" x="234.8352" y="67.3795" transform="rotate(-0 234.8352 67.3795)">03  Inspect</text>
   </g>
   <g id="text_8">
    <text style="font-size: 8.8px; font-family: 'Arial', 'DejaVu Sans', sans-serif; text-anchor: start; fill: #142c3d" x="234.8352" y="91.155625" transform="rotate(-0 234.8352 91.155625)">Read-only QC</text>
   </g>
   <g id="text_9">
    <text style="font-weight: 700; font-size: 10px; font-family: 'Arial', 'DejaVu Sans', sans-serif; text-anchor: start; fill: #087f8c" x="334.368" y="67.349812" transform="rotate(-0 334.368 67.349812)">04  Process</text>
   </g>
   <g id="text_10">
    <text style="font-size: 8.8px; font-family: 'Arial', 'DejaVu Sans', sans-serif; text-anchor: start; fill: #142c3d" x="334.368" y="91.155625" transform="rotate(-0 334.368 91.155625)">Ordered steps</text>
   </g>
   <g id="text_11">
    <text style="font-weight: 700; font-size: 10px; font-family: 'Arial', 'DejaVu Sans', sans-serif; text-anchor: start; fill: #087f8c" x="433.9008" y="67.3795" transform="rotate(-0 433.9008 67.3795)">05  Export</text>
   </g>
   <g id="text_12">
    <text style="font-size: 8.8px; font-family: 'Arial', 'DejaVu Sans', sans-serif; text-anchor: start; fill: #142c3d" x="433.9008" y="91.042875" transform="rotate(-0 433.9008 91.042875)">Data + reports</text>
   </g>
   <g id="text_13">
    <text style="font-weight: 700; font-size: 12px; font-family: 'Arial', 'DejaVu Sans', sans-serif; text-anchor: start; fill: #087f8c" x="18.144" y="129.830625" transform="rotate(-0 18.144 129.830625)">b</text>
   </g>
   <g id="text_14">
    <text style="font-weight: 700; font-size: 11px; font-family: 'Arial', 'DejaVu Sans', sans-serif; text-anchor: start; fill: #142c3d" x="37.8432" y="129.571406" transform="rotate(-0 37.8432 129.571406)">Fixed numerical operation order</text>
   </g>
   <g id="text_15">
    <text style="font-weight: 700; font-size: 9px; font-family: 'Arial', 'DejaVu Sans', sans-serif; text-anchor: start; fill: #087f8c" x="24.8832" y="157.564969" transform="rotate(-0 24.8832 157.564969)">01</text>
   </g>
   <g id="text_16">
    <text style="font-size: 9.2px; font-family: 'Arial', 'DejaVu Sans', sans-serif; text-anchor: start; fill: #142c3d" x="50.2848" y="157.610344" transform="rotate(-0 50.2848 157.610344)">Dark subtraction</text>
   </g>
   <g id="text_17">
    <text style="font-weight: 700; font-size: 9px; font-family: 'Arial', 'DejaVu Sans', sans-serif; text-anchor: start; fill: #087f8c" x="24.8832" y="178.552969" transform="rotate(-0 24.8832 178.552969)">02</text>
   </g>
   <g id="text_18">
    <text style="font-size: 9.2px; font-family: 'Arial', 'DejaVu Sans', sans-serif; text-anchor: start; fill: #142c3d" x="50.2848" y="178.598344" transform="rotate(-0 50.2848 178.598344)">Flat correction</text>
   </g>
   <g id="text_19">
    <text style="font-weight: 700; font-size: 9px; font-family: 'Arial', 'DejaVu Sans', sans-serif; text-anchor: start; fill: #087f8c" x="24.8832" y="199.540969" transform="rotate(-0 24.8832 199.540969)">03</text>
   </g>
   <g id="text_20">
    <text style="font-size: 9.2px; font-family: 'Arial', 'DejaVu Sans', sans-serif; text-anchor: start; fill: #142c3d" x="50.2848" y="199.5885" transform="rotate(-0 50.2848 199.5885)">Background offset</text>
   </g>
   <g id="text_21">
    <text style="font-weight: 700; font-size: 9px; font-family: 'Arial', 'DejaVu Sans', sans-serif; text-anchor: start; fill: #087f8c" x="24.8832" y="220.528969" transform="rotate(-0 24.8832 220.528969)">04</text>
   </g>
   <g id="text_22">
    <text style="font-size: 9.2px; font-family: 'Arial', 'DejaVu Sans', sans-serif; text-anchor: start; fill: #142c3d" x="50.2848" y="220.520438" transform="rotate(-0 50.2848 220.520438)">Validate clipping</text>
   </g>
   <g id="text_23">
    <text style="font-weight: 700; font-size: 9px; font-family: 'Arial', 'DejaVu Sans', sans-serif; text-anchor: start; fill: #087f8c" x="24.8832" y="241.516969" transform="rotate(-0 24.8832 241.516969)">05</text>
   </g>
   <g id="text_24">
    <text style="font-size: 9.2px; font-family: 'Arial', 'DejaVu Sans', sans-serif; text-anchor: start; fill: #142c3d" x="50.2848" y="241.5645" transform="rotate(-0 50.2848 241.5645)">Region of interest</text>
   </g>
   <g id="text_25">
    <text style="font-weight: 700; font-size: 9px; font-family: 'Arial', 'DejaVu Sans', sans-serif; text-anchor: start; fill: #087f8c" x="190.7712" y="157.564969" transform="rotate(-0 190.7712 157.564969)">06</text>
   </g>
   <g id="text_26">
    <text style="font-size: 9.2px; font-family: 'Arial', 'DejaVu Sans', sans-serif; text-anchor: start; fill: #142c3d" x="216.1728" y="157.610344" transform="rotate(-0 216.1728 157.610344)">Mask</text>
   </g>
   <g id="text_27">
    <text style="font-weight: 700; font-size: 9px; font-family: 'Arial', 'DejaVu Sans', sans-serif; text-anchor: start; fill: #087f8c" x="190.7712" y="178.552969" transform="rotate(-0 190.7712 178.552969)">07</text>
   </g>
   <g id="text_28">
    <text style="font-size: 9.2px; font-family: 'Arial', 'DejaVu Sans', sans-serif; text-anchor: start; fill: #142c3d" x="216.1728" y="178.544438" transform="rotate(-0 216.1728 178.544438)">Absolute clipping</text>
   </g>
   <g id="text_29">
    <text style="font-weight: 700; font-size: 9px; font-family: 'Arial', 'DejaVu Sans', sans-serif; text-anchor: start; fill: #087f8c" x="190.7712" y="199.540969" transform="rotate(-0 190.7712 199.540969)">08</text>
   </g>
   <g id="text_30">
    <text style="font-size: 9.2px; font-family: 'Arial', 'DejaVu Sans', sans-serif; text-anchor: start; fill: #142c3d" x="216.1728" y="199.532437" transform="rotate(-0 216.1728 199.532437)">Percentile clipping</text>
   </g>
   <g id="text_31">
    <text style="font-weight: 700; font-size: 9px; font-family: 'Arial', 'DejaVu Sans', sans-serif; text-anchor: start; fill: #087f8c" x="190.7712" y="220.528969" transform="rotate(-0 190.7712 220.528969)">09</text>
   </g>
   <g id="text_32">
    <text style="font-size: 9.2px; font-family: 'Arial', 'DejaVu Sans', sans-serif; text-anchor: start; fill: #142c3d" x="216.1728" y="220.520438" transform="rotate(-0 216.1728 220.520438)">Negative clipping</text>
   </g>
   <g id="text_33">
    <text style="font-weight: 700; font-size: 9px; font-family: 'Arial', 'DejaVu Sans', sans-serif; text-anchor: start; fill: #087f8c" x="190.7712" y="241.516969" transform="rotate(-0 190.7712 241.516969)">10</text>
   </g>
   <g id="text_34">
    <text style="font-size: 9.2px; font-family: 'Arial', 'DejaVu Sans', sans-serif; text-anchor: start; fill: #142c3d" x="216.1728" y="241.562344" transform="rotate(-0 216.1728 241.562344)">Hot-pixel suppression</text>
   </g>
   <g id="text_35">
    <text style="font-weight: 700; font-size: 9px; font-family: 'Arial', 'DejaVu Sans', sans-serif; text-anchor: start; fill: #087f8c" x="356.6592" y="157.564969" transform="rotate(-0 356.6592 157.564969)">11</text>
   </g>
   <g id="text_36">
    <text style="font-size: 9.2px; font-family: 'Arial', 'DejaVu Sans', sans-serif; text-anchor: start; fill: #142c3d" x="382.0608" y="157.666406" transform="rotate(-0 382.0608 157.666406)">Rotate / flip</text>
   </g>
   <g id="text_37">
    <text style="font-weight: 700; font-size: 9px; font-family: 'Arial', 'DejaVu Sans', sans-serif; text-anchor: start; fill: #087f8c" x="356.6592" y="178.552969" transform="rotate(-0 356.6592 178.552969)">12</text>
   </g>
   <g id="text_38">
    <text style="font-size: 9.2px; font-family: 'Arial', 'DejaVu Sans', sans-serif; text-anchor: start; fill: #142c3d" x="382.0608" y="178.544438" transform="rotate(-0 382.0608 178.544438)">Block-mean binning</text>
   </g>
   <g id="text_39">
    <text style="font-weight: 700; font-size: 9px; font-family: 'Arial', 'DejaVu Sans', sans-serif; text-anchor: start; fill: #087f8c" x="356.6592" y="199.540969" transform="rotate(-0 356.6592 199.540969)">13</text>
   </g>
   <g id="text_40">
    <text style="font-size: 9.2px; font-family: 'Arial', 'DejaVu Sans', sans-serif; text-anchor: start; fill: #142c3d" x="382.0608" y="199.5885" transform="rotate(-0 382.0608 199.5885)">Intensity transform</text>
   </g>
   <g id="text_41">
    <text style="font-weight: 700; font-size: 9px; font-family: 'Arial', 'DejaVu Sans', sans-serif; text-anchor: start; fill: #087f8c" x="356.6592" y="220.528969" transform="rotate(-0 356.6592 220.528969)">14</text>
   </g>
   <g id="text_42">
    <text style="font-size: 9.2px; font-family: 'Arial', 'DejaVu Sans', sans-serif; text-anchor: start; fill: #142c3d" x="382.0608" y="220.574344" transform="rotate(-0 382.0608 220.574344)">Gamma</text>
   </g>
   <g id="text_43">
    <text style="font-weight: 700; font-size: 9px; font-family: 'Arial', 'DejaVu Sans', sans-serif; text-anchor: start; fill: #087f8c" x="356.6592" y="241.516969" transform="rotate(-0 356.6592 241.516969)">15</text>
   </g>
   <g id="text_44">
    <text style="font-size: 9.2px; font-family: 'Arial', 'DejaVu Sans', sans-serif; text-anchor: start; fill: #142c3d" x="382.0608" y="241.562344" transform="rotate(-0 382.0608 241.562344)">Normalization</text>
   </g>
   <g id="text_45">
    <text style="font-weight: 700; font-size: 12px; font-family: 'Arial', 'DejaVu Sans', sans-serif; text-anchor: start; fill: #087f8c" x="18.144" y="280.310625" transform="rotate(-0 18.144 280.310625)">c</text>
   </g>
   <g id="text_46">
    <text style="font-weight: 700; font-size: 11px; font-family: 'Arial', 'DejaVu Sans', sans-serif; text-anchor: start; fill: #142c3d" x="37.8432" y="280.051406" transform="rotate(-0 37.8432 280.051406)">Independent tools</text>
   </g>
   <g id="text_47">
    <text style="font-weight: 700; font-size: 10px; font-family: 'Arial', 'DejaVu Sans', sans-serif; text-anchor: start; fill: #b86b20" x="35.7696" y="320.911687" transform="rotate(-0 35.7696 320.911687)">CBF zero-value repair</text>
   </g>
   <g id="text_48">
    <text style="font-size: 8.8px; font-family: 'Arial', 'DejaVu Sans', sans-serif; fill: #142c3d" transform="translate(35.7696 344.590125)">Target mask → write → verify</text>
    <text style="font-size: 8.8px; font-family: 'Arial', 'DejaVu Sans', sans-serif; fill: #142c3d" transform="translate(35.7696 355.731131)">Configured zeros; not saturation recovery</text>
   </g>
   <g id="text_49">
    <text style="font-weight: 700; font-size: 10px; font-family: 'Arial', 'DejaVu Sans', sans-serif; text-anchor: start; fill: #087f8c" x="284.6016" y="320.789813" transform="rotate(-0 284.6016 320.789813)">Ideal planar geometry</text>
   </g>
   <g id="text_50">
    <text style="font-size: 8.8px; font-family: 'Arial', 'DejaVu Sans', sans-serif; fill: #142c3d" transform="translate(284.6016 344.482875)">Wavelength + detector geometry</text>
    <text style="font-size: 8.8px; font-family: 'Arial', 'DejaVu Sans', sans-serif; fill: #142c3d" transform="translate(284.6016 355.631856)">Q, 2θ, radius and d-spacing conversion</text>
   </g>
   <g id="text_51">
    <text style="font-size: 8.8px; font-family: 'Arial', 'DejaVu Sans', sans-serif; text-anchor: start; fill: #516570" x="18.144" y="388.37975" transform="rotate(-0 18.144 388.37975)">Preprocessing and QC precede downstream integration or fitting.</text>
   </g>
  </g>
 </g>
 <defs>
  <clipPath id="p7a4573dd06">
   <rect x="0" y="0" width="518.4" height="396"/>
  </clipPath>
 </defs>
</svg>
